<?xml version="1.0" encoding="UTF-8" standalone="no"?>
<svg
   width="95.000114"
   height="49.999882"
   viewBox="0 0 95.000114 49.999882"
   version="1.1"
   id="svg15"
   sodipodi:docname="logo.svg"
   inkscape:version="1.1 (c4e8f9e, 2021-05-24)"
   xmlns:inkscape="http://www.inkscape.org/namespaces/inkscape"
   xmlns:sodipodi="http://sodipodi.sourceforge.net/DTD/sodipodi-0.dtd"
   xmlns="http://www.w3.org/2000/svg"
   xmlns:svg="http://www.w3.org/2000/svg">
  <defs
     id="defs19" />
  <sodipodi:namedview
     id="namedview17"
     pagecolor="#ffffff"
     bordercolor="#666666"
     borderopacity="1.0"
     inkscape:pageshadow="2"
     inkscape:pageopacity="0.0"
     inkscape:pagecheckerboard="0"
     showgrid="false"
     fit-margin-top="0"
     fit-margin-left="0"
     fit-margin-right="0"
     fit-margin-bottom="0"
     inkscape:zoom="10.82"
     inkscape:cx="50.046211"
     inkscape:cy="28.650647"
     inkscape:window-width="1440"
     inkscape:window-height="900"
     inkscape:window-x="0"
     inkscape:window-y="0"
     inkscape:window-maximized="0"
     inkscape:current-layer="svg15" />
  <g
     fill="#FFF"
     fill-rule="nonzero"
     id="g13"
     style="fill:#c0000f;fill-opacity:1"
     transform="translate(1.1126919e-4)">
    <path
       d="m 3.762,18.931 c 0,2.273 0.355,3.122 0.852,3.291 0.497,0.17 0.313,0.212 0.71,0.212 0.277,0 0.426,0.06 0.426,0.238 0,0.178 -0.227,0.297 -0.575,0.297 -1.619,0 -2.023,-0.094 -2.499,-0.094 -0.22,0 -0.809,0.094 -2.13,0.094 -0.319,0 -0.546,0 -0.546,-0.297 0,-0.297 0.15,-0.238 0.398,-0.238 0.248,0 0.191,0 0.532,-0.144 0.703,-0.237 0.774,-1.086 0.802,-3.69 L 1.952,1.01 C 1.952,0.416 2.023,0 2.272,0 2.52,0 2.769,0.39 3.194,0.916 c 0.299,0.39 4.075,5.233 7.71,9.534 1.69,2.018 5.04,6.301 5.466,6.785 h 0.128 L 16.242,3.893 c 0,-1.815 -0.248,-2.375 -0.845,-2.672 a 1.18,1.18 0 0 0 -0.71,-0.178 c -0.298,0 -0.397,-0.093 -0.397,-0.271 0,-0.178 0.277,-0.263 0.646,-0.263 1.292,0 1.902,0.093 2.428,0.093 0.248,0 0.71,-0.093 1.945,-0.093 0.326,0 0.575,0 0.575,0.263 0,0.263 -0.156,0.186 -0.448,0.271 L 19.16,1.128 C 18.45,1.366 18.265,1.976 18.244,3.673 L 17.96,22.409 c 0,0.653 -0.1,0.924 -0.327,0.924 A 1.623,1.623 0 0 1 16.789,22.68 C 15.227,20.89 12.047,16.964 9.441,13.936 6.737,10.729 3.975,7.014 3.528,6.446 H 3.471 m 30.146,1.499 c 0,-4.168 0,-4.934 -0.051,-5.81 -0.052,-0.876 0,-1.369 -0.87,-1.564 A 2.825,2.825 0 0 0 31.957,0.493 c -0.28,0 -0.442,-0.055 -0.442,-0.25 C 31.515,0.047 31.699,0 32.083,0 33.455,0 34.598,0.086 35.27,0.086 35.94,0.086 37.128,0 38.124,0 c 0.362,0 0.539,0.055 0.539,0.242 0,0.188 -0.155,0.22 -0.465,0.25 a 2.383,2.383 0 0 0 -0.509,0.079 c -0.738,0.14 -0.782,0.602 -0.833,1.564 -0.052,0.962 -0.052,1.642 -0.052,5.81 v 5.068 c 0,1.18 0.081,2.495 0.081,3.863 0.05,1.642 -0.16,3.28 -0.62,4.849 -0.545,1.673 -1.91,3.558 -4.426,5.177 -0.417,0.262 -0.848,0.5 -1.29,0.712 a 1.11,1.11 0 0 1 -0.517,0.164 c -0.114,0 -0.206,-0.098 -0.206,-0.22 0,-0.132 0.125,-0.242 0.568,-0.492 a 5.53,5.53 0 0 0 1.239,-1.04 c 1.962,-2.111 1.94,-4.849 1.94,-10.221 M 53.05,8.542 c 0,-4.468 0,-5.29 -0.062,-6.228 -0.06,-0.94 -0.227,-1.493 -0.873,-1.677 A 2.558,2.558 0 0 0 51.303,0.528 C 50.997,0.528 50.814,0.469 50.814,0.235 50.814,0 51.058,0 51.547,0 c 1.162,0 2.62,0.092 3.555,0.092 0.934,0 2.104,-0.067 3.265,-0.067 0.393,0 0.638,0.059 0.638,0.235 0,0.176 -0.183,0.293 -0.49,0.293 -0.214,0.004 -0.428,0.032 -0.637,0.084 -0.82,0.151 -0.925,0.646 -0.986,1.677 -0.061,1.03 -0.061,1.76 -0.061,6.228 v 5.172 c 0,2.85 0,5.172 0.122,6.43 0.096,0.787 0.305,1.324 1.222,1.433 0.324,0.07 0.655,0.11 0.987,0.117 0.332,0 0.49,0.092 0.49,0.235 0,0.142 -0.245,0.293 -0.577,0.293 -2.017,0 -3.37,-0.092 -4.192,-0.092 -0.82,0 -2.2,0.092 -3.423,0.092 -0.402,0 -0.611,-0.092 -0.611,-0.293 0,-0.201 0.122,-0.235 0.489,-0.235 0.275,0.004 0.55,-0.036 0.812,-0.117 0.611,-0.118 0.646,-0.612 0.742,-1.467 0.149,-1.232 0.149,-3.554 0.149,-6.404"
       id="path9"
       style="fill:#c0000f;fill-opacity:1" />
    <path
       d="m 80.061,21.973 -0.58,-0.074 c -0.699,-0.116 -0.88,-0.751 -0.95,-1.56 -0.119,-1.237 -0.119,-3.795 -0.119,-6.46 V 2.029 l 3.081,0.083 c 2.18,0.058 2.837,0.825 2.886,1.65 v 0.281 c 0,0.43 0.077,0.578 0.273,0.578 0.195,0 0.195,-0.174 0.216,-0.462 0,-0.751 0.07,-2.748 0.07,-3.35 0,-0.438 0,-0.611 -0.195,-0.611 A 5.291,5.291 0 0 0 84.079,0.347 9.925,9.925 0 0 1 82.388,0.495 H 72.724 A 20.64,20.64 0 0 1 70.28,0.347 5.023,5.023 0 0 1 69.23,0 c -0.147,0 -0.224,0.173 -0.294,0.545 -0.049,0.23 -0.517,2.863 -0.517,3.3 0,0.437 0.05,0.462 0.224,0.462 0.174,0 0.216,-0.115 0.272,-0.346 0.09,-0.364 0.233,-0.707 0.42,-1.015 0.37,-0.636 0.957,-0.825 2.375,-0.825 l 3.64,-0.116 v 11.874 c 0,2.656 0,5.289 -0.125,6.493 -0.077,0.825 -0.189,1.403 -0.699,1.593 a 4.3,4.3 0 0 1 -1.069,0.124 C 32.897,23.26 -0.07,49.755 0,49.879 c 0.034,0.06 0.087,0.102 0.148,0.116 a 0.203,0.203 0 0 0 0.174,-0.042 c 0.265,-0.215 27.9,-21.338 72.507,-25.282 13.577,-1.196 21.85,-1.568 21.933,-1.56 0.113,0.008 0.214,-0.083 0.238,-0.214 0,-0.115 -3.228,-0.982 -14.939,-0.916"
       id="path11"
       style="fill:#c0000f;fill-opacity:1" />
  </g>
</svg>
